:SAMPLES-PER-SECOND 30
:FULLY-SPECIFIED
:DEGREES
1571
root  29.5017 36.1752 0.11878 -174.539 66.1725 175.423
RightUpLeg  -38.0192 -26.6785 -9.40862
RightLeg  28.1687 -1.62798 -1.23945
RightFoot  4.70103 -1.00237 7.32689
RightToes  -1.81608e-008 0 -3.6325e-017
Spine  25.327 -0.136958 -15.5862
Spine1  -12.7616 -3.4513 6.30656
HEad  -27.698 -9.64431 2.79519
LeftShoulder1  0.188541 2.75626 -18.6728
LeftArm  -3.0901 -25.9295 -56.326
LeftForeArm  13.0524 -65.712 -24.8088
LeftHand  -0.0660458 6.61937 -1.65311
RightShoulder  -0.332913 -4.7025 20.6947
RightArm  -17.1873 -7.84977 34.6524
RightForeArm  35.0512 77.7031 70.2842
RightHand  -0.166771 1.68547 -2.8932
LeftUpLeg  -15.5442 16.6508 20.658
LeftLeg  -2.36196 -12.1501 0.808656
LeftFoot  7.04393 4.3256 -26.574
LeftToes  1.81866e-011 -6.13092e-011 2.52013e-011
1572
root  30.2308 35.6439 0.932551 -173.387 65.5343 176.172
RightUpLeg  -41.6289 -26.1896 -8.07229
RightLeg  35.7663 -1.50562 -1.4089
RightFoot  1.02108 -0.68295 6.32237
RightToes  -1.81608e-008 0 -3.6325e-017
Spine  25.5355 -0.205406 -13.5554
Spine1  -12.1319 -2.95162 5.04995
HEad  -30.1696 -10.1353 2.66396
LeftShoulder1  0.254884 2.48322 -18.4037
LeftArm  -4.32639 -26.7462 -56.7216
LeftForeArm  12.8107 -65.6384 -24.7439
LeftHand  -0.073612 7.07227 -1.73548
RightShoulder  -0.155203 -4.06202 19.8846
RightArm  -18.4736 -5.8939 34.7989
RightForeArm  33.4767 77.5778 68.664
RightHand  -0.157076 1.51912 -2.78774
LeftUpLeg  -15.9536 17.8855 22.5689
LeftLeg  -2.01062 -13.6122 0.79898
LeftFoot  6.11822 4.45152 -28.6722
LeftToes  1.81866e-011 -6.13092e-011 2.52013e-011
1573
root  30.9333 35.225 1.65798 -173.491 63.9472 176.047
RightUpLeg  -43.9153 -28.1208 -6.5565
RightLeg  41.638 -1.01354 -1.24947
RightFoot  -2.26515 -0.336322 4.0493
RightToes  -1.81608e-008 0 -3.6325e-017
Spine  26.6997 -0.256201 -12.1659
Spine1  -12.296 -3.12897 6.64821
HEad  -30.3326 -10.6562 2.46823
LeftShoulder1  0.20438 2.70221 -19.039
LeftArm  -4.25957 -27.4932 -56.7363
LeftForeArm  11.8637 -65.0281 -24.0534
LeftHand  -0.0580512 6.48169 -1.63879
RightShoulder  -0.0471471 -3.6668 18.7022
RightArm  -19.3706 -4.41394 34.6249
RightForeArm  33.7041 77.5811 68.5603
RightHand  -0.153272 1.16871 -2.83339
LeftUpLeg  -15.2565 18.3621 23.701
LeftLeg  -4.06792 -14.7399 1.55828
LeftFoot  6.3097 4.84623 -30.7717
LeftToes  1.81866e-011 -6.13092e-011 2.52013e-011
1574
root  31.6102 34.7085 2.4385 -176.968 63.4827 172.443
RightUpLeg  -46.4816 -28.5905 -6.85424
RightLeg  47.8866 -0.942707 -1.47025
RightFoot  -5.71421 -0.157394 2.41259
RightToes  -1.81608e-008 0 -3.6325e-017
Spine  27.377 0.0427143 -11.7986
Spine1  -12.1619 -2.89298 6.2954
HEad  -31.1995 -11.2165 3.52014
LeftShoulder1  0.318651 2.19577 -17.6453
LeftArm  -4.70076 -27.3777 -57.6359
LeftForeArm  12.0897 -64.9503 -23.9266
LeftHand  -0.0426829 5.95696 -1.71313
RightShoulder  -0.127825 -3.97487 19.2356
RightArm  -20.4252 -2.74577 33.6101
RightForeArm  32.2554 77.4785 67.5541
RightHand  -0.162725 1.90286 -2.76702
LeftUpLeg  -14.5382 18.0216 23.6804
LeftLeg  -4.58988 -14.5622 1.99079
LeftFoot  6.61226 5.06475 -31.5784
LeftToes  1.81866e-011 -6.13092e-011 2.52013e-011
1575
root  32.3459 34.1375 3.15732 -179.655 64.1827 169.943
RightUpLeg  -48.3647 -26.748 -7.11495
RightLeg  53.5348 -1.469 -2.53035
RightFoot  -9.28785 -0.0845897 1.30028
RightToes  -1.81608e-008 0 -3.6325e-017
Spine  28.0057 0.199058 -10.6653
Spine1  -12.1978 -2.38312 4.93211
HEad  -32.1316 -11.2092 3.62735
LeftShoulder1  0.304785 2.24986 -17.6638
LeftArm  -4.9215 -28.1072 -57.1329
LeftForeArm  11.5887 -65.2421 -24.3696
LeftHand  -0.0408381 6.33584 -0.674455
RightShoulder  -0.0870825 -3.81621 19.1264
RightArm  -21.3425 -1.47646 33.457
RightForeArm  32.9866 77.5345 68.1262
RightHand  -0.164638 2.25245 -2.70639
LeftUpLeg  -13.3751 18.6704 24.8249
LeftLeg  -3.78125 -14.9605 1.68141
LeftFoot  5.83191 5.04372 -32.8043
LeftToes  1.81866e-011 -6.13092e-011 2.52013e-011
1576
root  33.0182 33.6561 3.70693 178.426 64.2157 168.067
RightUpLeg  -49.5498 -25.517 -7.32755
RightLeg  57.8771 -1.86122 -3.65591
RightFoot  -12.4264 -0.0761585 0.787531
RightToes  -1.81608e-008 0 -3.6325e-017
Spine  28.2604 -0.490588 -8.71853
Spine1  -12.1309 -2.65367 4.36784
HEad  -32.8782 -10.7625 2.72913
LeftShoulder1  0.240198 2.54319 -18.357
LeftArm  -6.07337 -28.3865 -56.9848
LeftForeArm  11.4385 -65.1514 -24.2702
LeftHand  -0.0446371 6.61297 -0.735057
RightShoulder  -0.000937992 -3.48423 18.4159
RightArm  -21.2426 0.537859 33.4523
RightForeArm  31.8754 77.4363 67.0536
RightHand  -0.212874 1.60255 -3.68206
LeftUpLeg  -12.5059 18.9556 25.6345
LeftLeg  -3.54577 -15.3503 1.7521
LeftFoot  5.04892 5.01015 -34.0512
LeftToes  1.81866e-011 -6.13092e-011 2.52013e-011
